<?xml version="1.0" standalone="no"?>
<!DOCTYPE svg PUBLIC "-//W3C//DTD SVG 20010904//EN"
 "http://www.w3.org/TR/2001/REC-SVG-20010904/DTD/svg10.dtd">
<svg version="1.0" xmlns="http://www.w3.org/2000/svg"
 width="45.000000pt" height="46.000000pt" viewBox="0 0 45.000000 46.000000"
 preserveAspectRatio="xMidYMid meet">

<g transform="translate(0.000000,46.000000) scale(0.100000,-0.100000)"
fill="#000000" stroke="none">
<path d="M210 395 c0 -16 6 -25 15 -25 9 0 15 9 15 25 0 16 -6 25 -15 25 -9 0
-15 -9 -15 -25z"/>
<path d="M90 356 c0 -7 7 -19 15 -26 22 -19 44 3 25 25 -16 19 -40 20 -40 1z"/>
<path d="M320 355 c-10 -12 -10 -19 -2 -27 13 -13 42 6 42 28 0 19 -24 18 -40
-1z"/>
<path d="M174 321 c-56 -34 -71 -130 -21 -139 15 -3 17 2 11 36 -5 32 -2 44
15 61 46 46 115 10 109 -57 -2 -28 1 -37 14 -40 12 -2 19 6 23 30 9 46 -8 84
-47 108 -41 25 -65 25 -104 1z"/>
<path d="M40 235 c0 -9 9 -15 25 -15 16 0 25 6 25 15 0 9 -9 15 -25 15 -16 0
-25 -6 -25 -15z"/>
<path d="M360 235 c0 -9 9 -15 25 -15 16 0 25 6 25 15 0 9 -9 15 -25 15 -16 0
-25 -6 -25 -15z"/>
<path d="M217 173 c-4 -3 -7 -17 -7 -30 0 -16 -6 -23 -20 -23 -27 0 -25 -22 3
-48 29 -28 38 -28 65 1 27 29 28 47 2 47 -16 0 -20 7 -20 30 0 29 -9 38 -23
23z"/>
<path d="M102 138 c-16 -16 -15 -38 2 -38 18 0 39 27 31 40 -8 13 -18 13 -33
-2z"/>
<path d="M315 140 c-8 -13 13 -40 31 -40 17 0 18 22 2 38 -15 15 -25 15 -33 2z"/>
</g>
</svg>
