<?xml version="1.0" encoding="utf-8"?>
<!-- Svg Vector Icons : http://www.onlinewebfonts.com/icon -->
<!DOCTYPE svg PUBLIC "-//W3C//DTD SVG 1.1//EN" "http://www.w3.org/Graphics/SVG/1.1/DTD/svg11.dtd">
<svg version="1.1" xmlns="http://www.w3.org/2000/svg" xmlns:xlink="http://www.w3.org/1999/xlink" x="0px" y="0px" viewBox="0 0 1000 1000" enable-background="new 0 0 1000 1000" xml:space="preserve">
<metadata> Svg Vector Icons : http://www.onlinewebfonts.com/icon </metadata>
<g><g transform="translate(0.000000,511.000000) scale(0.100000,-0.100000)"><path d="M1958.2,4994.7c-90-26.6-184.2-126.9-210.8-225.1c-14.3-53.2-20.5-278.3-16.4-618c6.1-599.6,12.3-626.2,157.6-716.2c145.3-90,352-36.8,442,112.5c38.9,63.4,40.9,104.4,40.9,650.7s-2,587.3-40.9,650.7C2257,4972.1,2095.3,5033.5,1958.2,4994.7z"/><path d="M4250.1,4994.7c-90-26.6-184.2-126.9-210.8-225.1c-14.3-53.2-20.5-278.3-16.4-618c6.1-599.6,12.3-626.2,157.6-716.2c145.3-90,352-36.8,442,112.5c36.8,61.4,40.9,110.5,47.1,579.1c4.1,282.4,2,550.5-6.1,599.6c-16.4,112.5-126.9,239.4-231.2,270.1C4346.2,5019.2,4338.1,5019.2,4250.1,4994.7z"/><path d="M6541.9,4994.7c-90-26.6-184.2-126.9-210.8-225.1c-14.3-53.2-20.5-278.3-16.4-618c6.1-599.6,12.3-626.2,157.6-716.2c145.3-90,352-36.8,442,112.5c36.8,61.4,40.9,110.5,47.1,579.1c4.1,282.4,2.1,550.5-6.1,599.6c-16.4,112.5-126.9,239.4-231.2,270.1C6638.1,5019.2,6629.9,5019.2,6541.9,4994.7z"/><path d="M1235.8,4341.9C945.3,4307.1,714,4190.5,489,3963.3c-182.1-180.1-286.5-356.1-352-583.2c-34.8-126.9-36.8-284.4-36.8-3100.2c0-3280.2-10.2-3057.2,137.1-3366.2c149.4-313.1,470.6-583.2,824.7-687.5c114.6-34.8,274.2-36.9,2201.8-43l2077-8.2l-77.8,159.6c-43,88-102.3,235.3-131,327.4l-53.2,169.8L3141-3164l-1935.8,6.1l-102.3,55.3c-122.8,65.5-233.3,178-298.8,302.9l-49.1,92.1l-6.1,2226.4l-4.1,2224.3h3601.5h3601.5V918.4V93.8L8091,69.2c77.8-12.3,225.1-51.2,327.4-83.9L8604.6-74l-8.2,1669.8c-6.1,1858.1,2,1741.4-149.4,2050.4c-112.5,225.1-347.9,458.4-581.2,568.9c-171.9,79.8-286.5,112.5-474.7,135.1l-98.2,12.3v-405.2c0-403.1,0-403.1-59.3-525.9c-116.6-243.5-329.4-378.6-595.5-378.6c-266,0-478.8,135.1-595.5,378.6c-59.3,122.8-59.3,122.8-59.3,527.9v403.1h-489.1h-491.1l-6.2-423.6c-6.1-415.4-8.2-427.7-61.4-527.9c-71.6-137.1-184.2-241.5-331.5-309c-106.4-47.1-137.1-53.2-286.5-45c-257.8,14.3-442,131-560.7,354c-53.2,100.3-55.3,112.5-61.4,527.9l-6.2,423.6h-489.1h-489.1l-6.1-423.6c-6.1-415.4-8.2-427.7-61.4-527.9c-71.6-137.1-184.2-241.5-331.5-309c-106.4-47.1-137.1-53.2-286.5-45c-270.1,14.3-462.5,143.2-573,384.7c-51.2,108.4-53.2,126.9-53.2,517.7c0,221-6.1,401.1-14.3,401.1C1375,4358.3,1309.5,4350.1,1235.8,4341.9z"/><path d="M1958.2,1065.7c-92.1-26.6-186.2-128.9-212.8-229.2c-12.3-47.1-18.4-176-14.3-290.6c8.2-233.3,40.9-311,159.6-384.7c67.5-43,96.2-45,491.1-45s423.6,2,491.1,45c131,81.9,153.5,145.3,153.5,435.9c0,290.6-22.5,354-153.5,435.9c-65.5,40.9-100.3,45-460.4,49.1C2199.7,1084.2,1995,1078,1958.2,1065.7z"/><path d="M3922.6,1065.7c-92.1-26.6-186.2-128.9-212.8-229.2c-12.3-47.1-18.4-176-14.3-290.6c8.2-233.3,40.9-311,159.6-384.7c67.5-43,96.2-45,491.1-45c394.9,0,423.6,2,491.1,45c131,81.9,153.5,145.3,153.5,435.9c0,290.6-22.5,354-153.5,435.9c-65.5,40.9-100.3,45-460.4,49.1C4164.1,1084.2,3959.5,1078,3922.6,1065.7z"/><path d="M5887.1,1065.7c-92.1-26.6-186.2-128.9-212.8-229.2c-12.3-47.1-18.4-176-14.3-290.6c8.2-233.3,40.9-311,159.6-384.7c67.5-43,96.2-45,491.1-45c394.9,0,423.6,2,491.1,45c131,81.9,153.5,145.3,153.5,435.9c0,290.6-22.5,354-153.5,435.9c-65.5,40.9-100.3,45-460.4,49.1C6128.6,1084.2,5923.9,1078,5887.1,1065.7z"/><path d="M1958.2-243.9c-92.1-26.6-186.2-128.9-212.8-229.2c-12.3-47.1-18.4-176-14.3-290.6c8.2-233.3,40.9-311,159.6-384.7c67.5-43,96.2-45,491.1-45s423.6,2.1,491.1,45c131,81.9,153.5,145.3,153.5,435.9c0,290.6-22.5,354-153.5,435.9c-65.5,40.9-100.3,45-460.4,49.1C2199.7-225.5,1995-231.6,1958.2-243.9z"/><path d="M3922.6-243.9c-92.1-26.6-186.2-128.9-212.8-229.2c-12.3-47.1-18.4-176-14.3-290.6c8.2-233.3,40.9-311,159.6-384.7c67.5-43,96.2-45,491.1-45c394.9,0,423.6,2.1,491.1,45c131,81.9,153.5,145.3,153.5,435.9c0,290.6-22.5,354-153.5,435.9c-65.5,40.9-100.3,45-460.4,49.1C4164.1-225.5,3959.5-231.6,3922.6-243.9z"/><path d="M7385-241.8c-407.2-40.9-828.8-210.8-1156.2-460.4c-149.4-116.6-401.1-380.6-497.2-527.9c-266-401.1-386.8-802.2-386.8-1283c-2-607.8,200.5-1117.3,613.9-1557.2c245.6-261.9,487-429.7,802.2-556.6c865.6-347.9,1853.9-139.1,2492.4,525.9c374.5,388.8,587.3,849.2,636.4,1371c65.5,718.2-182.1,1375.1-706,1874.4C8704.9-399.4,8046-174.3,7385-241.8z M7998.9-915.1c319.2-77.8,593.4-235.3,808.3-466.6c309-329.5,450.2-685.5,450.2-1131.6c0-560.7-259.9-1049.7-728.5-1366.9c-474.7-321.3-1117.3-362.2-1637-104.4c-804.2,397-1139.8,1385.4-744.9,2197.7c206.7,421.6,620,755.1,1076.3,867.6C7444.4-863.9,7779.9-863.9,7998.9-915.1z"/><path d="M7524.1-1226.1c-90-26.6-184.2-126.9-210.8-225.1c-14.3-53.2-20.5-278.3-16.4-618c6.1-599.6,12.3-624.1,159.6-716.2c69.6-43,90-45,654.8-45s585.2,2,654.8,45c202.6,126.9,202.6,425.6-4.1,548.4c-59.3,36.8-110.5,40.9-440,47.1l-370.4,8.2l-8.2,370.4c-6.1,329.5-10.2,380.6-47.1,440C7822.9-1248.6,7661.3-1185.2,7524.1-1226.1z"/><path d="M1958.2-1553.5c-92.1-26.6-186.2-128.9-212.8-229.2c-12.3-47.1-18.4-176-14.3-290.6c8.2-233.3,40.9-311,159.6-384.7c67.5-43,96.2-45,491.1-45s423.6,2.1,491.1,45c131,81.8,153.5,145.3,153.5,435.9c0,290.6-22.5,354-153.5,435.9c-65.5,40.9-100.3,45-460.4,49.1C2199.7-1535.1,1995-1541.2,1958.2-1553.5z"/><path d="M3922.6-1553.5c-92.1-26.6-186.2-128.9-212.8-229.2c-12.3-47.1-18.4-176-14.3-290.6c8.2-233.3,40.9-311,159.6-384.7c67.5-43,96.2-45,491.1-45c394.9,0,423.6,2.1,491.1,45c131,81.8,153.5,145.3,153.5,435.9c0,290.6-22.5,354-153.5,435.9c-65.5,40.9-100.3,45-460.4,49.1C4164.1-1535.1,3959.5-1541.2,3922.6-1553.5z"/></g></g>
</svg>