<?xml version="1.0" standalone="no"?>
<!DOCTYPE svg PUBLIC "-//W3C//DTD SVG 20010904//EN"
 "http://www.w3.org/TR/2001/REC-SVG-20010904/DTD/svg10.dtd">
<svg version="1.0" xmlns="http://www.w3.org/2000/svg"
 width="45.000000pt" height="45.000000pt" viewBox="0 0 45.000000 45.000000"
 preserveAspectRatio="xMidYMid meet">

<g transform="translate(0.000000,45.000000) scale(0.100000,-0.100000)"
fill="#000000" stroke="none">
<path d="M210 385 c0 -16 6 -25 15 -25 9 0 15 9 15 25 0 16 -6 25 -15 25 -9 0
-15 -9 -15 -25z"/>
<path d="M90 346 c0 -7 7 -19 15 -26 22 -19 44 3 25 25 -16 19 -40 20 -40 1z"/>
<path d="M320 345 c-10 -12 -10 -19 -2 -27 13 -13 42 6 42 28 0 19 -24 18 -40
-1z"/>
<path d="M178 314 c-94 -51 -60 -189 47 -189 105 0 142 131 53 185 -39 24 -63
25 -100 4z m92 -44 c40 -40 11 -110 -45 -110 -32 0 -65 33 -65 65 0 14 9 34
20 45 11 11 31 20 45 20 14 0 34 -9 45 -20z"/>
<path d="M40 225 c0 -9 9 -15 25 -15 16 0 25 6 25 15 0 9 -9 15 -25 15 -16 0
-25 -6 -25 -15z"/>
<path d="M360 225 c0 -9 9 -15 25 -15 16 0 25 6 25 15 0 9 -9 15 -25 15 -16 0
-25 -6 -25 -15z"/>
<path d="M102 128 c-16 -16 -15 -38 2 -38 18 0 39 27 31 40 -8 13 -18 13 -33
-2z"/>
<path d="M315 130 c-8 -13 13 -40 31 -40 17 0 18 22 2 38 -15 15 -25 15 -33 2z"/>
<path d="M210 65 c0 -16 6 -25 15 -25 9 0 15 9 15 25 0 16 -6 25 -15 25 -9 0
-15 -9 -15 -25z"/>
</g>
</svg>
