<?xml version="1.0" standalone="no"?>
<!DOCTYPE svg PUBLIC "-//W3C//DTD SVG 20010904//EN"
 "http://www.w3.org/TR/2001/REC-SVG-20010904/DTD/svg10.dtd">
<svg version="1.0" xmlns="http://www.w3.org/2000/svg"
 width="45.000000pt" height="46.000000pt" viewBox="0 0 45.000000 46.000000"
 preserveAspectRatio="xMidYMid meet">

<g transform="translate(0.000000,46.000000) scale(0.100000,-0.100000)"
fill="#000000" stroke="none">
<path d="M146 361 c-124 -82 -69 -274 78 -274 74 0 146 59 146 120 0 20 -3 21
-54 16 -49 -5 -57 -3 -81 22 -25 24 -27 32 -22 81 5 51 4 54 -16 54 -12 0 -35
-9 -51 -19z m43 -119 c16 -30 55 -54 99 -61 l36 -6 -24 -22 c-101 -95 -251 54
-157 155 l22 24 6 -34 c3 -18 11 -43 18 -56z"/>
</g>
</svg>
