<?xml version="1.0" standalone="no"?>
<!DOCTYPE svg PUBLIC "-//W3C//DTD SVG 20010904//EN"
 "http://www.w3.org/TR/2001/REC-SVG-20010904/DTD/svg10.dtd">
<svg version="1.0" xmlns="http://www.w3.org/2000/svg"
 width="45.000000pt" height="46.000000pt" viewBox="0 0 45.000000 46.000000"
 preserveAspectRatio="xMidYMid meet">

<g transform="translate(0.000000,46.000000) scale(0.100000,-0.100000)"
fill="#000000" stroke="none">
<path d="M210 375 c0 -16 6 -25 15 -25 9 0 15 9 15 25 0 16 -6 25 -15 25 -9 0
-15 -9 -15 -25z"/>
<path d="M90 336 c0 -7 7 -19 15 -26 22 -19 44 3 25 25 -16 19 -40 20 -40 1z"/>
<path d="M320 335 c-10 -12 -10 -19 -2 -27 13 -13 42 6 42 28 0 19 -24 18 -40
-1z"/>
<path d="M185 311 c-51 -22 -80 -98 -52 -135 20 -27 37 -12 30 28 -4 26 0 39
16 55 46 46 115 10 109 -56 -4 -42 15 -55 32 -23 16 30 5 82 -24 109 -26 24
-80 35 -111 22z"/>
<path d="M47 234 c-16 -16 -6 -34 19 -34 19 0 25 5 22 17 -3 19 -29 29 -41 17z"/>
<path d="M367 234 c-16 -16 -6 -34 19 -34 19 0 25 5 22 17 -3 19 -29 29 -41
17z"/>
<path d="M77 113 c-4 -3 -2 -12 4 -20 16 -19 272 -19 288 0 6 8 8 17 4 20 -8
9 -288 9 -296 0z"/>
</g>
</svg>
